<mxfile host="Electron" agent="Mozilla/5.0 (X11; Linux x86_64) AppleWebKit/537.36 (KHTML, like Gecko) draw.io/28.2.5 Chrome/138.0.7204.251 Electron/37.6.1 Safari/537.36" version="28.2.5">
  <diagram name="Page-1" id="H0k7F3KZQ2GbxWEV2vYz">
    <mxGraphModel dx="2129" dy="2222" grid="1" gridSize="10" guides="1" tooltips="1" connect="1" arrows="1" fold="1" page="1" pageScale="1" pageWidth="850" pageHeight="1100" background="none" math="0" shadow="0">
      <root>
        <mxCell id="0" />
        <mxCell id="1" parent="0" />
        <mxCell id="hM7P6G1NgurO1BVf0OzH-1" value="Менеджер платформы" style="swimlane;html=1;childLayout=stackLayout;resizeParent=1;resizeParentMax=0;horizontal=0;startSize=20;horizontalStack=0;whiteSpace=wrap;" vertex="1" parent="1">
          <mxGeometry x="160" y="580" width="1170" height="610" as="geometry">
            <mxRectangle x="160" y="570" width="40" height="160" as="alternateBounds" />
          </mxGeometry>
        </mxCell>
        <mxCell id="hM7P6G1NgurO1BVf0OzH-2" value="Модерация&lt;br&gt;контента" style="swimlane;html=1;startSize=40;horizontal=0;" vertex="1" parent="hM7P6G1NgurO1BVf0OzH-1">
          <mxGeometry x="20" width="1150" height="160" as="geometry">
            <mxRectangle x="20" width="460" height="40" as="alternateBounds" />
          </mxGeometry>
        </mxCell>
        <mxCell id="hM7P6G1NgurO1BVf0OzH-53" value="Получить запрос&lt;div&gt;на модерацию&lt;/div&gt;" style="points=[[0.145,0.145,0],[0.5,0,0],[0.855,0.145,0],[1,0.5,0],[0.855,0.855,0],[0.5,1,0],[0.145,0.855,0],[0,0.5,0]];shape=mxgraph.bpmn.event;html=1;verticalLabelPosition=bottom;labelBackgroundColor=none;verticalAlign=top;align=center;perimeter=ellipsePerimeter;outlineConnect=0;aspect=fixed;outline=standard;symbol=message;" vertex="1" parent="hM7P6G1NgurO1BVf0OzH-2">
          <mxGeometry x="80" y="55" width="50" height="50" as="geometry" />
        </mxCell>
        <mxCell id="hM7P6G1NgurO1BVf0OzH-54" value="Проверить контент" style="points=[[0.25,0,0],[0.5,0,0],[0.75,0,0],[1,0.25,0],[1,0.5,0],[1,0.75,0],[0.75,1,0],[0.5,1,0],[0.25,1,0],[0,0.75,0],[0,0.5,0],[0,0.25,0]];shape=mxgraph.bpmn.task2;whiteSpace=wrap;rectStyle=rounded;size=10;html=1;container=1;expand=0;collapsible=0;taskMarker=abstract;" vertex="1" parent="hM7P6G1NgurO1BVf0OzH-2">
          <mxGeometry x="170" y="40" width="120" height="80" as="geometry" />
        </mxCell>
        <mxCell id="hM7P6G1NgurO1BVf0OzH-55" value="Принять решение" style="points=[[0.25,0,0],[0.5,0,0],[0.75,0,0],[1,0.25,0],[1,0.5,0],[1,0.75,0],[0.75,1,0],[0.5,1,0],[0.25,1,0],[0,0.75,0],[0,0.5,0],[0,0.25,0]];shape=mxgraph.bpmn.task2;whiteSpace=wrap;rectStyle=rounded;size=10;html=1;container=1;expand=0;collapsible=0;taskMarker=abstract;" vertex="1" parent="hM7P6G1NgurO1BVf0OzH-2">
          <mxGeometry x="330" y="40" width="120" height="80" as="geometry" />
        </mxCell>
        <mxCell id="hM7P6G1NgurO1BVf0OzH-56" value="Отправить&lt;div&gt;результат модерации&lt;/div&gt;" style="points=[[0.145,0.145,0],[0.5,0,0],[0.855,0.145,0],[1,0.5,0],[0.855,0.855,0],[0.5,1,0],[0.145,0.855,0],[0,0.5,0]];shape=mxgraph.bpmn.event;html=1;verticalLabelPosition=bottom;labelBackgroundColor=none;verticalAlign=top;align=center;perimeter=ellipsePerimeter;outlineConnect=0;aspect=fixed;outline=end;symbol=message;" vertex="1" parent="hM7P6G1NgurO1BVf0OzH-2">
          <mxGeometry x="490" y="55" width="50" height="50" as="geometry" />
        </mxCell>
        <mxCell id="hM7P6G1NgurO1BVf0OzH-57" style="edgeStyle=orthogonalEdgeStyle;rounded=1;orthogonalLoop=1;jettySize=auto;html=1;entryX=0;entryY=0.5;entryDx=0;entryDy=0;entryPerimeter=0;curved=0;" edge="1" parent="hM7P6G1NgurO1BVf0OzH-2" source="hM7P6G1NgurO1BVf0OzH-53" target="hM7P6G1NgurO1BVf0OzH-54">
          <mxGeometry relative="1" as="geometry" />
        </mxCell>
        <mxCell id="hM7P6G1NgurO1BVf0OzH-58" style="edgeStyle=orthogonalEdgeStyle;rounded=1;orthogonalLoop=1;jettySize=auto;html=1;entryX=0;entryY=0.5;entryDx=0;entryDy=0;entryPerimeter=0;curved=0;" edge="1" parent="hM7P6G1NgurO1BVf0OzH-2" source="hM7P6G1NgurO1BVf0OzH-54" target="hM7P6G1NgurO1BVf0OzH-55">
          <mxGeometry relative="1" as="geometry" />
        </mxCell>
        <mxCell id="hM7P6G1NgurO1BVf0OzH-59" style="edgeStyle=orthogonalEdgeStyle;rounded=1;orthogonalLoop=1;jettySize=auto;html=1;entryX=0;entryY=0.5;entryDx=0;entryDy=0;entryPerimeter=0;curved=0;" edge="1" parent="hM7P6G1NgurO1BVf0OzH-2" source="hM7P6G1NgurO1BVf0OzH-55" target="hM7P6G1NgurO1BVf0OzH-56">
          <mxGeometry relative="1" as="geometry" />
        </mxCell>
        <mxCell id="hM7P6G1NgurO1BVf0OzH-3" value="Анализ поведения&lt;br&gt;игроков" style="swimlane;html=1;startSize=40;horizontal=0;" vertex="1" parent="hM7P6G1NgurO1BVf0OzH-1">
          <mxGeometry x="20" y="160" width="1150" height="160" as="geometry">
            <mxRectangle x="20" y="140" width="460" height="40" as="alternateBounds" />
          </mxGeometry>
        </mxCell>
        <mxCell id="hM7P6G1NgurO1BVf0OzH-43" value="Каждые 24 часа" style="points=[[0.145,0.145,0],[0.5,0,0],[0.855,0.145,0],[1,0.5,0],[0.855,0.855,0],[0.5,1,0],[0.145,0.855,0],[0,0.5,0]];shape=mxgraph.bpmn.event;html=1;verticalLabelPosition=bottom;labelBackgroundColor=none;verticalAlign=top;align=center;perimeter=ellipsePerimeter;outlineConnect=0;aspect=fixed;outline=standard;symbol=timer;" vertex="1" parent="hM7P6G1NgurO1BVf0OzH-3">
          <mxGeometry x="80" y="55" width="50" height="50" as="geometry" />
        </mxCell>
        <mxCell id="hM7P6G1NgurO1BVf0OzH-44" value="Собрать данные" style="points=[[0.25,0,0],[0.5,0,0],[0.75,0,0],[1,0.25,0],[1,0.5,0],[1,0.75,0],[0.75,1,0],[0.5,1,0],[0.25,1,0],[0,0.75,0],[0,0.5,0],[0,0.25,0]];shape=mxgraph.bpmn.task2;whiteSpace=wrap;rectStyle=rounded;size=10;html=1;container=1;expand=0;collapsible=0;taskMarker=abstract;" vertex="1" parent="hM7P6G1NgurO1BVf0OzH-3">
          <mxGeometry x="170" y="40" width="120" height="80" as="geometry" />
        </mxCell>
        <mxCell id="hM7P6G1NgurO1BVf0OzH-46" value="Запустить анализ" style="points=[[0.25,0,0],[0.5,0,0],[0.75,0,0],[1,0.25,0],[1,0.5,0],[1,0.75,0],[0.75,1,0],[0.5,1,0],[0.25,1,0],[0,0.75,0],[0,0.5,0],[0,0.25,0]];shape=mxgraph.bpmn.task2;whiteSpace=wrap;rectStyle=rounded;size=10;html=1;container=1;expand=0;collapsible=0;taskMarker=abstract;" vertex="1" parent="hM7P6G1NgurO1BVf0OzH-3">
          <mxGeometry x="330" y="40" width="120" height="80" as="geometry" />
        </mxCell>
        <mxCell id="hM7P6G1NgurO1BVf0OzH-47" value="Обновить рекомендации" style="points=[[0.25,0,0],[0.5,0,0],[0.75,0,0],[1,0.25,0],[1,0.5,0],[1,0.75,0],[0.75,1,0],[0.5,1,0],[0.25,1,0],[0,0.75,0],[0,0.5,0],[0,0.25,0]];shape=mxgraph.bpmn.task2;whiteSpace=wrap;rectStyle=rounded;size=10;html=1;container=1;expand=0;collapsible=0;taskMarker=abstract;" vertex="1" parent="hM7P6G1NgurO1BVf0OzH-3">
          <mxGeometry x="490" y="40" width="120" height="80" as="geometry" />
        </mxCell>
        <mxCell id="hM7P6G1NgurO1BVf0OzH-48" value="" style="points=[[0.145,0.145,0],[0.5,0,0],[0.855,0.145,0],[1,0.5,0],[0.855,0.855,0],[0.5,1,0],[0.145,0.855,0],[0,0.5,0]];shape=mxgraph.bpmn.event;html=1;verticalLabelPosition=bottom;labelBackgroundColor=#ffffff;verticalAlign=top;align=center;perimeter=ellipsePerimeter;outlineConnect=0;aspect=fixed;outline=end;symbol=terminate2;" vertex="1" parent="hM7P6G1NgurO1BVf0OzH-3">
          <mxGeometry x="650" y="55" width="50" height="50" as="geometry" />
        </mxCell>
        <mxCell id="hM7P6G1NgurO1BVf0OzH-49" style="edgeStyle=orthogonalEdgeStyle;rounded=1;orthogonalLoop=1;jettySize=auto;html=1;entryX=0;entryY=0.5;entryDx=0;entryDy=0;entryPerimeter=0;curved=0;" edge="1" parent="hM7P6G1NgurO1BVf0OzH-3" source="hM7P6G1NgurO1BVf0OzH-43" target="hM7P6G1NgurO1BVf0OzH-44">
          <mxGeometry relative="1" as="geometry" />
        </mxCell>
        <mxCell id="hM7P6G1NgurO1BVf0OzH-50" style="edgeStyle=orthogonalEdgeStyle;rounded=1;orthogonalLoop=1;jettySize=auto;html=1;entryX=0;entryY=0.5;entryDx=0;entryDy=0;entryPerimeter=0;curved=0;" edge="1" parent="hM7P6G1NgurO1BVf0OzH-3" source="hM7P6G1NgurO1BVf0OzH-44" target="hM7P6G1NgurO1BVf0OzH-46">
          <mxGeometry relative="1" as="geometry" />
        </mxCell>
        <mxCell id="hM7P6G1NgurO1BVf0OzH-51" style="edgeStyle=orthogonalEdgeStyle;rounded=1;orthogonalLoop=1;jettySize=auto;html=1;entryX=0;entryY=0.5;entryDx=0;entryDy=0;entryPerimeter=0;curved=0;" edge="1" parent="hM7P6G1NgurO1BVf0OzH-3" source="hM7P6G1NgurO1BVf0OzH-46" target="hM7P6G1NgurO1BVf0OzH-47">
          <mxGeometry relative="1" as="geometry" />
        </mxCell>
        <mxCell id="hM7P6G1NgurO1BVf0OzH-52" style="edgeStyle=orthogonalEdgeStyle;rounded=1;orthogonalLoop=1;jettySize=auto;html=1;entryX=0;entryY=0.5;entryDx=0;entryDy=0;entryPerimeter=0;curved=0;" edge="1" parent="hM7P6G1NgurO1BVf0OzH-3" source="hM7P6G1NgurO1BVf0OzH-47" target="hM7P6G1NgurO1BVf0OzH-48">
          <mxGeometry relative="1" as="geometry" />
        </mxCell>
        <mxCell id="hM7P6G1NgurO1BVf0OzH-4" value="Мониторинг состояния&lt;br&gt;системы" style="swimlane;html=1;startSize=40;horizontal=0;" vertex="1" parent="hM7P6G1NgurO1BVf0OzH-1">
          <mxGeometry x="20" y="320" width="1150" height="290" as="geometry">
            <mxRectangle x="20" y="290" width="460" height="40" as="alternateBounds" />
          </mxGeometry>
        </mxCell>
        <mxCell id="hM7P6G1NgurO1BVf0OzH-13" value="Каждые 10 мин" style="points=[[0.145,0.145,0],[0.5,0,0],[0.855,0.145,0],[1,0.5,0],[0.855,0.855,0],[0.5,1,0],[0.145,0.855,0],[0,0.5,0]];shape=mxgraph.bpmn.event;html=1;verticalLabelPosition=bottom;labelBackgroundColor=none;verticalAlign=top;align=center;perimeter=ellipsePerimeter;outlineConnect=0;aspect=fixed;outline=standard;symbol=timer;" vertex="1" parent="hM7P6G1NgurO1BVf0OzH-4">
          <mxGeometry x="80" y="55" width="50" height="50" as="geometry" />
        </mxCell>
        <mxCell id="hM7P6G1NgurO1BVf0OzH-14" value="Проверить&lt;div&gt;активные&lt;/div&gt;&lt;div&gt;подключения&lt;/div&gt;" style="points=[[0.25,0,0],[0.5,0,0],[0.75,0,0],[1,0.25,0],[1,0.5,0],[1,0.75,0],[0.75,1,0],[0.5,1,0],[0.25,1,0],[0,0.75,0],[0,0.5,0],[0,0.25,0]];shape=mxgraph.bpmn.task2;whiteSpace=wrap;rectStyle=rounded;size=10;html=1;container=1;expand=0;collapsible=0;taskMarker=abstract;" vertex="1" parent="hM7P6G1NgurO1BVf0OzH-4">
          <mxGeometry x="170" y="40" width="120" height="80" as="geometry" />
        </mxCell>
        <mxCell id="hM7P6G1NgurO1BVf0OzH-33" value="" style="points=[[0.145,0.145,0],[0.5,0,0],[0.855,0.145,0],[1,0.5,0],[0.855,0.855,0],[0.5,1,0],[0.145,0.855,0],[0,0.5,0]];shape=mxgraph.bpmn.event;html=1;verticalLabelPosition=bottom;labelBackgroundColor=#ffffff;verticalAlign=top;align=center;perimeter=ellipsePerimeter;outlineConnect=0;aspect=fixed;outline=boundInt;symbol=error;" vertex="1" parent="hM7P6G1NgurO1BVf0OzH-14">
          <mxGeometry x="90" y="55" width="50" height="50" as="geometry" />
        </mxCell>
        <mxCell id="hM7P6G1NgurO1BVf0OzH-15" style="edgeStyle=orthogonalEdgeStyle;rounded=1;orthogonalLoop=1;jettySize=auto;html=1;entryX=0;entryY=0.5;entryDx=0;entryDy=0;entryPerimeter=0;curved=0;" edge="1" parent="hM7P6G1NgurO1BVf0OzH-4" source="hM7P6G1NgurO1BVf0OzH-13" target="hM7P6G1NgurO1BVf0OzH-14">
          <mxGeometry relative="1" as="geometry" />
        </mxCell>
        <mxCell id="hM7P6G1NgurO1BVf0OzH-16" value="Проанализировать&lt;div&gt;среднее время&lt;/div&gt;&lt;div&gt;откликов&lt;/div&gt;&lt;div&gt;сервисов&lt;/div&gt;" style="points=[[0.25,0,0],[0.5,0,0],[0.75,0,0],[1,0.25,0],[1,0.5,0],[1,0.75,0],[0.75,1,0],[0.5,1,0],[0.25,1,0],[0,0.75,0],[0,0.5,0],[0,0.25,0]];shape=mxgraph.bpmn.task2;whiteSpace=wrap;rectStyle=rounded;size=10;html=1;container=1;expand=0;collapsible=0;taskMarker=abstract;" vertex="1" parent="hM7P6G1NgurO1BVf0OzH-4">
          <mxGeometry x="330" y="40" width="120" height="80" as="geometry" />
        </mxCell>
        <mxCell id="hM7P6G1NgurO1BVf0OzH-34" value="" style="points=[[0.145,0.145,0],[0.5,0,0],[0.855,0.145,0],[1,0.5,0],[0.855,0.855,0],[0.5,1,0],[0.145,0.855,0],[0,0.5,0]];shape=mxgraph.bpmn.event;html=1;verticalLabelPosition=bottom;labelBackgroundColor=#ffffff;verticalAlign=top;align=center;perimeter=ellipsePerimeter;outlineConnect=0;aspect=fixed;outline=boundInt;symbol=error;" vertex="1" parent="hM7P6G1NgurO1BVf0OzH-16">
          <mxGeometry x="90" y="55" width="50" height="50" as="geometry" />
        </mxCell>
        <mxCell id="hM7P6G1NgurO1BVf0OzH-17" style="edgeStyle=orthogonalEdgeStyle;rounded=1;orthogonalLoop=1;jettySize=auto;html=1;entryX=0;entryY=0.5;entryDx=0;entryDy=0;entryPerimeter=0;curved=0;" edge="1" parent="hM7P6G1NgurO1BVf0OzH-4" source="hM7P6G1NgurO1BVf0OzH-14" target="hM7P6G1NgurO1BVf0OzH-16">
          <mxGeometry relative="1" as="geometry" />
        </mxCell>
        <mxCell id="hM7P6G1NgurO1BVf0OzH-18" value="Проверить&lt;div&gt;корректность&lt;/div&gt;&lt;div&gt;загрузки&lt;/div&gt;&lt;div&gt;данных&lt;/div&gt;" style="points=[[0.25,0,0],[0.5,0,0],[0.75,0,0],[1,0.25,0],[1,0.5,0],[1,0.75,0],[0.75,1,0],[0.5,1,0],[0.25,1,0],[0,0.75,0],[0,0.5,0],[0,0.25,0]];shape=mxgraph.bpmn.task2;whiteSpace=wrap;rectStyle=rounded;size=10;html=1;container=1;expand=0;collapsible=0;taskMarker=abstract;" vertex="1" parent="hM7P6G1NgurO1BVf0OzH-4">
          <mxGeometry x="490" y="40" width="120" height="80" as="geometry" />
        </mxCell>
        <mxCell id="hM7P6G1NgurO1BVf0OzH-35" value="" style="points=[[0.145,0.145,0],[0.5,0,0],[0.855,0.145,0],[1,0.5,0],[0.855,0.855,0],[0.5,1,0],[0.145,0.855,0],[0,0.5,0]];shape=mxgraph.bpmn.event;html=1;verticalLabelPosition=bottom;labelBackgroundColor=#ffffff;verticalAlign=top;align=center;perimeter=ellipsePerimeter;outlineConnect=0;aspect=fixed;outline=boundInt;symbol=error;" vertex="1" parent="hM7P6G1NgurO1BVf0OzH-18">
          <mxGeometry x="90" y="55" width="50" height="50" as="geometry" />
        </mxCell>
        <mxCell id="hM7P6G1NgurO1BVf0OzH-20" style="edgeStyle=orthogonalEdgeStyle;rounded=1;orthogonalLoop=1;jettySize=auto;html=1;entryX=0;entryY=0.5;entryDx=0;entryDy=0;entryPerimeter=0;curved=0;" edge="1" parent="hM7P6G1NgurO1BVf0OzH-4" source="hM7P6G1NgurO1BVf0OzH-16" target="hM7P6G1NgurO1BVf0OzH-18">
          <mxGeometry relative="1" as="geometry" />
        </mxCell>
        <mxCell id="hM7P6G1NgurO1BVf0OzH-31" value="" style="points=[[0.145,0.145,0],[0.5,0,0],[0.855,0.145,0],[1,0.5,0],[0.855,0.855,0],[0.5,1,0],[0.145,0.855,0],[0,0.5,0]];shape=mxgraph.bpmn.event;html=1;verticalLabelPosition=bottom;labelBackgroundColor=#ffffff;verticalAlign=top;align=center;perimeter=ellipsePerimeter;outlineConnect=0;aspect=fixed;outline=end;symbol=terminate2;" vertex="1" parent="hM7P6G1NgurO1BVf0OzH-4">
          <mxGeometry x="650" y="55" width="50" height="50" as="geometry" />
        </mxCell>
        <mxCell id="hM7P6G1NgurO1BVf0OzH-32" style="edgeStyle=orthogonalEdgeStyle;rounded=1;orthogonalLoop=1;jettySize=auto;html=1;entryX=0;entryY=0.5;entryDx=0;entryDy=0;entryPerimeter=0;curved=0;" edge="1" parent="hM7P6G1NgurO1BVf0OzH-4" source="hM7P6G1NgurO1BVf0OzH-18" target="hM7P6G1NgurO1BVf0OzH-31">
          <mxGeometry relative="1" as="geometry" />
        </mxCell>
        <mxCell id="hM7P6G1NgurO1BVf0OzH-36" value="Отправить&lt;div&gt;уведомление&lt;/div&gt;&lt;div&gt;о сбое&lt;/div&gt;" style="points=[[0.25,0,0],[0.5,0,0],[0.75,0,0],[1,0.25,0],[1,0.5,0],[1,0.75,0],[0.75,1,0],[0.5,1,0],[0.25,1,0],[0,0.75,0],[0,0.5,0],[0,0.25,0]];shape=mxgraph.bpmn.task2;whiteSpace=wrap;rectStyle=rounded;size=10;html=1;container=1;expand=0;collapsible=0;taskMarker=abstract;" vertex="1" parent="hM7P6G1NgurO1BVf0OzH-4">
          <mxGeometry x="650" y="175" width="120" height="80" as="geometry" />
        </mxCell>
        <mxCell id="hM7P6G1NgurO1BVf0OzH-38" style="edgeStyle=orthogonalEdgeStyle;rounded=1;orthogonalLoop=1;jettySize=auto;html=1;entryX=0;entryY=0.75;entryDx=0;entryDy=0;entryPerimeter=0;curved=0;" edge="1" parent="hM7P6G1NgurO1BVf0OzH-4" source="hM7P6G1NgurO1BVf0OzH-33" target="hM7P6G1NgurO1BVf0OzH-36">
          <mxGeometry relative="1" as="geometry">
            <Array as="points">
              <mxPoint x="285" y="235" />
            </Array>
          </mxGeometry>
        </mxCell>
        <mxCell id="hM7P6G1NgurO1BVf0OzH-39" style="edgeStyle=orthogonalEdgeStyle;rounded=1;orthogonalLoop=1;jettySize=auto;html=1;entryX=0;entryY=0.5;entryDx=0;entryDy=0;entryPerimeter=0;curved=0;" edge="1" parent="hM7P6G1NgurO1BVf0OzH-4" source="hM7P6G1NgurO1BVf0OzH-34" target="hM7P6G1NgurO1BVf0OzH-36">
          <mxGeometry relative="1" as="geometry">
            <Array as="points">
              <mxPoint x="445" y="215" />
            </Array>
          </mxGeometry>
        </mxCell>
        <mxCell id="hM7P6G1NgurO1BVf0OzH-40" style="edgeStyle=orthogonalEdgeStyle;rounded=1;orthogonalLoop=1;jettySize=auto;html=1;entryX=0;entryY=0.25;entryDx=0;entryDy=0;entryPerimeter=0;curved=0;" edge="1" parent="hM7P6G1NgurO1BVf0OzH-4" source="hM7P6G1NgurO1BVf0OzH-35" target="hM7P6G1NgurO1BVf0OzH-36">
          <mxGeometry relative="1" as="geometry">
            <Array as="points">
              <mxPoint x="605" y="195" />
            </Array>
          </mxGeometry>
        </mxCell>
        <mxCell id="hM7P6G1NgurO1BVf0OzH-41" value="" style="points=[[0.145,0.145,0],[0.5,0,0],[0.855,0.145,0],[1,0.5,0],[0.855,0.855,0],[0.5,1,0],[0.145,0.855,0],[0,0.5,0]];shape=mxgraph.bpmn.event;html=1;verticalLabelPosition=bottom;labelBackgroundColor=#ffffff;verticalAlign=top;align=center;perimeter=ellipsePerimeter;outlineConnect=0;aspect=fixed;outline=end;symbol=terminate2;" vertex="1" parent="hM7P6G1NgurO1BVf0OzH-4">
          <mxGeometry x="810" y="190" width="50" height="50" as="geometry" />
        </mxCell>
        <mxCell id="hM7P6G1NgurO1BVf0OzH-42" style="edgeStyle=orthogonalEdgeStyle;rounded=1;orthogonalLoop=1;jettySize=auto;html=1;entryX=0;entryY=0.5;entryDx=0;entryDy=0;entryPerimeter=0;curved=0;" edge="1" parent="hM7P6G1NgurO1BVf0OzH-4" source="hM7P6G1NgurO1BVf0OzH-36" target="hM7P6G1NgurO1BVf0OzH-41">
          <mxGeometry relative="1" as="geometry" />
        </mxCell>
        <mxCell id="hM7P6G1NgurO1BVf0OzH-65" value="Разработчик" style="swimlane;startSize=20;horizontal=0;html=1;whiteSpace=wrap;gradientColor=none;" vertex="1" parent="1">
          <mxGeometry x="160" y="40" width="1170" height="500" as="geometry" />
        </mxCell>
        <mxCell id="hM7P6G1NgurO1BVf0OzH-66" value="" style="points=[[0.145,0.145,0],[0.5,0,0],[0.855,0.145,0],[1,0.5,0],[0.855,0.855,0],[0.5,1,0],[0.145,0.855,0],[0,0.5,0]];shape=mxgraph.bpmn.event;html=1;verticalLabelPosition=bottom;labelBackgroundColor=#ffffff;verticalAlign=top;align=center;perimeter=ellipsePerimeter;outlineConnect=0;aspect=fixed;outline=standard;symbol=general;" vertex="1" parent="hM7P6G1NgurO1BVf0OzH-65">
          <mxGeometry x="60" y="160" width="50" height="50" as="geometry" />
        </mxCell>
        <mxCell id="hM7P6G1NgurO1BVf0OzH-67" value="Есть аккаунт?" style="points=[[0.25,0.25,0],[0.5,0,0],[0.75,0.25,0],[1,0.5,0],[0.75,0.75,0],[0.5,1,0],[0.25,0.75,0],[0,0.5,0]];shape=mxgraph.bpmn.gateway2;html=1;verticalLabelPosition=bottom;labelBackgroundColor=none;verticalAlign=top;align=center;perimeter=rhombusPerimeter;outlineConnect=0;outline=none;symbol=none;gwType=exclusive;" vertex="1" parent="hM7P6G1NgurO1BVf0OzH-65">
          <mxGeometry x="150" y="160" width="50" height="50" as="geometry" />
        </mxCell>
        <mxCell id="hM7P6G1NgurO1BVf0OzH-76" style="edgeStyle=orthogonalEdgeStyle;rounded=1;orthogonalLoop=1;jettySize=auto;html=1;entryX=0.5;entryY=0;entryDx=0;entryDy=0;dashPattern=1 2;endArrow=open;endFill=0;dashed=1;curved=0;" edge="1" parent="hM7P6G1NgurO1BVf0OzH-65" source="hM7P6G1NgurO1BVf0OzH-68" target="hM7P6G1NgurO1BVf0OzH-75">
          <mxGeometry relative="1" as="geometry" />
        </mxCell>
        <mxCell id="hM7P6G1NgurO1BVf0OzH-68" value="Регистрация" style="points=[[0.25,0,0],[0.5,0,0],[0.75,0,0],[1,0.25,0],[1,0.5,0],[1,0.75,0],[0.75,1,0],[0.5,1,0],[0.25,1,0],[0,0.75,0],[0,0.5,0],[0,0.25,0]];shape=mxgraph.bpmn.task2;whiteSpace=wrap;rectStyle=rounded;size=10;html=1;container=1;expand=0;collapsible=0;taskMarker=abstract;" vertex="1" parent="hM7P6G1NgurO1BVf0OzH-65">
          <mxGeometry x="240" y="145" width="120" height="80" as="geometry" />
        </mxCell>
        <mxCell id="hM7P6G1NgurO1BVf0OzH-69" value="Вход в&lt;div&gt;существующий&lt;/div&gt;&lt;div&gt;аккаунт&lt;/div&gt;" style="points=[[0.25,0,0],[0.5,0,0],[0.75,0,0],[1,0.25,0],[1,0.5,0],[1,0.75,0],[0.75,1,0],[0.5,1,0],[0.25,1,0],[0,0.75,0],[0,0.5,0],[0,0.25,0]];shape=mxgraph.bpmn.task2;whiteSpace=wrap;rectStyle=rounded;size=10;html=1;container=1;expand=0;collapsible=0;taskMarker=abstract;" vertex="1" parent="hM7P6G1NgurO1BVf0OzH-65">
          <mxGeometry x="240" y="40" width="120" height="80" as="geometry" />
        </mxCell>
        <mxCell id="hM7P6G1NgurO1BVf0OzH-70" style="edgeStyle=orthogonalEdgeStyle;rounded=1;orthogonalLoop=1;jettySize=auto;html=1;entryX=0;entryY=0.5;entryDx=0;entryDy=0;entryPerimeter=0;curved=0;" edge="1" parent="hM7P6G1NgurO1BVf0OzH-65" source="hM7P6G1NgurO1BVf0OzH-66" target="hM7P6G1NgurO1BVf0OzH-67">
          <mxGeometry relative="1" as="geometry" />
        </mxCell>
        <mxCell id="hM7P6G1NgurO1BVf0OzH-71" style="edgeStyle=orthogonalEdgeStyle;rounded=1;orthogonalLoop=1;jettySize=auto;html=1;exitX=1;exitY=0.5;exitDx=0;exitDy=0;exitPerimeter=0;entryX=0;entryY=0.5;entryDx=0;entryDy=0;entryPerimeter=0;curved=0;" edge="1" parent="hM7P6G1NgurO1BVf0OzH-65" source="hM7P6G1NgurO1BVf0OzH-67" target="hM7P6G1NgurO1BVf0OzH-68">
          <mxGeometry relative="1" as="geometry" />
        </mxCell>
        <mxCell id="hM7P6G1NgurO1BVf0OzH-73" value="Нет" style="edgeLabel;html=1;align=center;verticalAlign=middle;resizable=0;points=[];labelBackgroundColor=none;" vertex="1" connectable="0" parent="hM7P6G1NgurO1BVf0OzH-71">
          <mxGeometry x="-0.3214" y="1" relative="1" as="geometry">
            <mxPoint y="-14" as="offset" />
          </mxGeometry>
        </mxCell>
        <mxCell id="hM7P6G1NgurO1BVf0OzH-72" style="edgeStyle=orthogonalEdgeStyle;rounded=1;orthogonalLoop=1;jettySize=auto;html=1;entryX=0;entryY=0.5;entryDx=0;entryDy=0;entryPerimeter=0;curved=0;" edge="1" parent="hM7P6G1NgurO1BVf0OzH-65" source="hM7P6G1NgurO1BVf0OzH-67" target="hM7P6G1NgurO1BVf0OzH-69">
          <mxGeometry relative="1" as="geometry">
            <Array as="points">
              <mxPoint x="175" y="80" />
            </Array>
          </mxGeometry>
        </mxCell>
        <mxCell id="hM7P6G1NgurO1BVf0OzH-74" value="Да" style="edgeLabel;html=1;align=center;verticalAlign=middle;resizable=0;points=[];labelBackgroundColor=none;" vertex="1" connectable="0" parent="hM7P6G1NgurO1BVf0OzH-72">
          <mxGeometry x="-0.6078" relative="1" as="geometry">
            <mxPoint x="15" as="offset" />
          </mxGeometry>
        </mxCell>
        <mxCell id="hM7P6G1NgurO1BVf0OzH-75" value="БД" style="shape=datastore;html=1;labelPosition=center;verticalLabelPosition=bottom;align=center;verticalAlign=top;" vertex="1" parent="hM7P6G1NgurO1BVf0OzH-65">
          <mxGeometry x="280" y="260" width="40" height="40" as="geometry" />
        </mxCell>
        <mxCell id="hM7P6G1NgurO1BVf0OzH-78" value="" style="points=[[0.25,0.25,0],[0.5,0,0],[0.75,0.25,0],[1,0.5,0],[0.75,0.75,0],[0.5,1,0],[0.25,0.75,0],[0,0.5,0]];shape=mxgraph.bpmn.gateway2;html=1;verticalLabelPosition=bottom;labelBackgroundColor=#ffffff;verticalAlign=top;align=center;perimeter=rhombusPerimeter;outlineConnect=0;outline=none;symbol=none;gwType=exclusive;" vertex="1" parent="hM7P6G1NgurO1BVf0OzH-65">
          <mxGeometry x="400" y="160" width="50" height="50" as="geometry" />
        </mxCell>
        <mxCell id="hM7P6G1NgurO1BVf0OzH-79" style="edgeStyle=orthogonalEdgeStyle;rounded=1;orthogonalLoop=1;jettySize=auto;html=1;entryX=0;entryY=0.5;entryDx=0;entryDy=0;entryPerimeter=0;curved=0;" edge="1" parent="hM7P6G1NgurO1BVf0OzH-65" source="hM7P6G1NgurO1BVf0OzH-68" target="hM7P6G1NgurO1BVf0OzH-78">
          <mxGeometry relative="1" as="geometry" />
        </mxCell>
        <mxCell id="hM7P6G1NgurO1BVf0OzH-80" style="edgeStyle=orthogonalEdgeStyle;rounded=1;orthogonalLoop=1;jettySize=auto;html=1;entryX=0.5;entryY=0;entryDx=0;entryDy=0;entryPerimeter=0;curved=0;" edge="1" parent="hM7P6G1NgurO1BVf0OzH-65" source="hM7P6G1NgurO1BVf0OzH-69" target="hM7P6G1NgurO1BVf0OzH-78">
          <mxGeometry relative="1" as="geometry" />
        </mxCell>
        <mxCell id="hM7P6G1NgurO1BVf0OzH-88" style="edgeStyle=orthogonalEdgeStyle;rounded=1;orthogonalLoop=1;jettySize=auto;html=1;entryX=0.5;entryY=1;entryDx=0;entryDy=0;dashed=1;dashPattern=1 2;endArrow=open;endFill=0;curved=0;" edge="1" parent="hM7P6G1NgurO1BVf0OzH-65" source="hM7P6G1NgurO1BVf0OzH-81" target="hM7P6G1NgurO1BVf0OzH-85">
          <mxGeometry relative="1" as="geometry" />
        </mxCell>
        <mxCell id="hM7P6G1NgurO1BVf0OzH-81" value="Просмотреть&lt;div&gt;статистику&lt;/div&gt;&lt;div&gt;по играм&lt;/div&gt;" style="points=[[0.25,0,0],[0.5,0,0],[0.75,0,0],[1,0.25,0],[1,0.5,0],[1,0.75,0],[0.75,1,0],[0.5,1,0],[0.25,1,0],[0,0.75,0],[0,0.5,0],[0,0.25,0]];shape=mxgraph.bpmn.task2;whiteSpace=wrap;rectStyle=rounded;size=10;html=1;container=1;expand=0;collapsible=0;taskMarker=abstract;" vertex="1" parent="hM7P6G1NgurO1BVf0OzH-65">
          <mxGeometry x="490" y="145" width="120" height="80" as="geometry" />
        </mxCell>
        <mxCell id="hM7P6G1NgurO1BVf0OzH-82" value="Отправить данные&lt;div&gt;об игре&lt;/div&gt;&lt;div&gt;на модерацию&lt;/div&gt;" style="points=[[0.25,0,0],[0.5,0,0],[0.75,0,0],[1,0.25,0],[1,0.5,0],[1,0.75,0],[0.75,1,0],[0.5,1,0],[0.25,1,0],[0,0.75,0],[0,0.5,0],[0,0.25,0]];shape=mxgraph.bpmn.task2;whiteSpace=wrap;rectStyle=rounded;size=10;html=1;container=1;expand=0;collapsible=0;taskMarker=abstract;" vertex="1" parent="hM7P6G1NgurO1BVf0OzH-65">
          <mxGeometry x="490" y="270" width="120" height="80" as="geometry" />
        </mxCell>
        <mxCell id="hM7P6G1NgurO1BVf0OzH-83" style="edgeStyle=orthogonalEdgeStyle;rounded=1;orthogonalLoop=1;jettySize=auto;html=1;entryX=0;entryY=0.5;entryDx=0;entryDy=0;entryPerimeter=0;curved=0;" edge="1" parent="hM7P6G1NgurO1BVf0OzH-65" source="hM7P6G1NgurO1BVf0OzH-78" target="hM7P6G1NgurO1BVf0OzH-81">
          <mxGeometry relative="1" as="geometry" />
        </mxCell>
        <mxCell id="hM7P6G1NgurO1BVf0OzH-84" style="edgeStyle=orthogonalEdgeStyle;rounded=1;orthogonalLoop=1;jettySize=auto;html=1;exitX=0.5;exitY=1;exitDx=0;exitDy=0;exitPerimeter=0;entryX=0;entryY=0.5;entryDx=0;entryDy=0;entryPerimeter=0;curved=0;" edge="1" parent="hM7P6G1NgurO1BVf0OzH-65" source="hM7P6G1NgurO1BVf0OzH-78" target="hM7P6G1NgurO1BVf0OzH-82">
          <mxGeometry relative="1" as="geometry" />
        </mxCell>
        <mxCell id="hM7P6G1NgurO1BVf0OzH-85" value="БД" style="shape=datastore;labelPosition=center;verticalLabelPosition=bottom;align=center;verticalAlign=top;labelBorderColor=none;labelBackgroundColor=none;textShadow=0;html=1;convertToSvg=0;spacing=-65;" vertex="1" parent="hM7P6G1NgurO1BVf0OzH-65">
          <mxGeometry x="530" y="70" width="40" height="40" as="geometry" />
        </mxCell>
        <mxCell id="hM7P6G1NgurO1BVf0OzH-89" value="" style="points=[[0.145,0.145,0],[0.5,0,0],[0.855,0.145,0],[1,0.5,0],[0.855,0.855,0],[0.5,1,0],[0.145,0.855,0],[0,0.5,0]];shape=mxgraph.bpmn.event;html=1;verticalLabelPosition=bottom;labelBackgroundColor=#ffffff;verticalAlign=top;align=center;perimeter=ellipsePerimeter;outlineConnect=0;aspect=fixed;outline=end;symbol=terminate2;" vertex="1" parent="hM7P6G1NgurO1BVf0OzH-65">
          <mxGeometry x="650" y="160" width="50" height="50" as="geometry" />
        </mxCell>
        <mxCell id="hM7P6G1NgurO1BVf0OzH-90" style="edgeStyle=orthogonalEdgeStyle;rounded=1;orthogonalLoop=1;jettySize=auto;html=1;entryX=0;entryY=0.5;entryDx=0;entryDy=0;entryPerimeter=0;curved=0;" edge="1" parent="hM7P6G1NgurO1BVf0OzH-65" source="hM7P6G1NgurO1BVf0OzH-81" target="hM7P6G1NgurO1BVf0OzH-89">
          <mxGeometry relative="1" as="geometry" />
        </mxCell>
        <mxCell id="hM7P6G1NgurO1BVf0OzH-91" value="Отправить&lt;div&gt;запрос&lt;/div&gt;&lt;div&gt;на модерацию&lt;/div&gt;" style="points=[[0.145,0.145,0],[0.5,0,0],[0.855,0.145,0],[1,0.5,0],[0.855,0.855,0],[0.5,1,0],[0.145,0.855,0],[0,0.5,0]];shape=mxgraph.bpmn.event;html=1;verticalLabelPosition=bottom;labelBackgroundColor=none;verticalAlign=top;align=center;perimeter=ellipsePerimeter;outlineConnect=0;aspect=fixed;outline=throwing;symbol=message;spacing=-90;fontSize=9;" vertex="1" parent="hM7P6G1NgurO1BVf0OzH-65">
          <mxGeometry x="650" y="285" width="50" height="50" as="geometry" />
        </mxCell>
        <mxCell id="hM7P6G1NgurO1BVf0OzH-92" value="Получить&lt;div&gt;результат&lt;/div&gt;&lt;div&gt;модерации&lt;/div&gt;" style="points=[[0.145,0.145,0],[0.5,0,0],[0.855,0.145,0],[1,0.5,0],[0.855,0.855,0],[0.5,1,0],[0.145,0.855,0],[0,0.5,0]];shape=mxgraph.bpmn.event;html=1;verticalLabelPosition=bottom;labelBackgroundColor=none;verticalAlign=top;align=center;perimeter=ellipsePerimeter;outlineConnect=0;aspect=fixed;outline=catching;symbol=message;spacing=-90;fontSize=9;" vertex="1" parent="hM7P6G1NgurO1BVf0OzH-65">
          <mxGeometry x="740" y="285" width="50" height="50" as="geometry" />
        </mxCell>
        <mxCell id="hM7P6G1NgurO1BVf0OzH-93" value="Информация&lt;div&gt;одобрена?&lt;/div&gt;" style="points=[[0.25,0.25,0],[0.5,0,0],[0.75,0.25,0],[1,0.5,0],[0.75,0.75,0],[0.5,1,0],[0.25,0.75,0],[0,0.5,0]];shape=mxgraph.bpmn.gateway2;html=1;verticalLabelPosition=bottom;labelBackgroundColor=none;verticalAlign=top;align=center;perimeter=rhombusPerimeter;outlineConnect=0;outline=none;symbol=none;gwType=exclusive;spacing=-84;spacingTop=0;" vertex="1" parent="hM7P6G1NgurO1BVf0OzH-65">
          <mxGeometry x="830" y="285" width="50" height="50" as="geometry" />
        </mxCell>
        <mxCell id="hM7P6G1NgurO1BVf0OzH-94" value="Исправить замечания" style="points=[[0.25,0,0],[0.5,0,0],[0.75,0,0],[1,0.25,0],[1,0.5,0],[1,0.75,0],[0.75,1,0],[0.5,1,0],[0.25,1,0],[0,0.75,0],[0,0.5,0],[0,0.25,0]];shape=mxgraph.bpmn.task2;whiteSpace=wrap;rectStyle=rounded;size=10;html=1;container=1;expand=0;collapsible=0;taskMarker=abstract;" vertex="1" parent="hM7P6G1NgurO1BVf0OzH-65">
          <mxGeometry x="920" y="270" width="120" height="80" as="geometry" />
        </mxCell>
        <mxCell id="hM7P6G1NgurO1BVf0OzH-95" value="Опубликовать&lt;div&gt;информацию&lt;/div&gt;&lt;div&gt;об игре&lt;/div&gt;" style="points=[[0.25,0,0],[0.5,0,0],[0.75,0,0],[1,0.25,0],[1,0.5,0],[1,0.75,0],[0.75,1,0],[0.5,1,0],[0.25,1,0],[0,0.75,0],[0,0.5,0],[0,0.25,0]];shape=mxgraph.bpmn.task2;whiteSpace=wrap;rectStyle=rounded;size=10;html=1;container=1;expand=0;collapsible=0;taskMarker=abstract;" vertex="1" parent="hM7P6G1NgurO1BVf0OzH-65">
          <mxGeometry x="920" y="380" width="120" height="80" as="geometry" />
        </mxCell>
        <mxCell id="hM7P6G1NgurO1BVf0OzH-96" value="" style="points=[[0.145,0.145,0],[0.5,0,0],[0.855,0.145,0],[1,0.5,0],[0.855,0.855,0],[0.5,1,0],[0.145,0.855,0],[0,0.5,0]];shape=mxgraph.bpmn.event;html=1;verticalLabelPosition=bottom;labelBackgroundColor=#ffffff;verticalAlign=top;align=center;perimeter=ellipsePerimeter;outlineConnect=0;aspect=fixed;outline=end;symbol=terminate2;" vertex="1" parent="hM7P6G1NgurO1BVf0OzH-65">
          <mxGeometry x="1080" y="395" width="50" height="50" as="geometry" />
        </mxCell>
        <mxCell id="hM7P6G1NgurO1BVf0OzH-97" style="edgeStyle=orthogonalEdgeStyle;rounded=1;orthogonalLoop=1;jettySize=auto;html=1;entryX=0;entryY=0.5;entryDx=0;entryDy=0;entryPerimeter=0;curved=0;" edge="1" parent="hM7P6G1NgurO1BVf0OzH-65" source="hM7P6G1NgurO1BVf0OzH-82" target="hM7P6G1NgurO1BVf0OzH-91">
          <mxGeometry relative="1" as="geometry" />
        </mxCell>
        <mxCell id="hM7P6G1NgurO1BVf0OzH-98" style="edgeStyle=orthogonalEdgeStyle;rounded=1;orthogonalLoop=1;jettySize=auto;html=1;entryX=0;entryY=0.5;entryDx=0;entryDy=0;entryPerimeter=0;curved=0;" edge="1" parent="hM7P6G1NgurO1BVf0OzH-65" source="hM7P6G1NgurO1BVf0OzH-91" target="hM7P6G1NgurO1BVf0OzH-92">
          <mxGeometry relative="1" as="geometry" />
        </mxCell>
        <mxCell id="hM7P6G1NgurO1BVf0OzH-99" style="edgeStyle=orthogonalEdgeStyle;rounded=1;orthogonalLoop=1;jettySize=auto;html=1;entryX=0;entryY=0.5;entryDx=0;entryDy=0;entryPerimeter=0;curved=0;" edge="1" parent="hM7P6G1NgurO1BVf0OzH-65" source="hM7P6G1NgurO1BVf0OzH-92" target="hM7P6G1NgurO1BVf0OzH-93">
          <mxGeometry relative="1" as="geometry" />
        </mxCell>
        <mxCell id="hM7P6G1NgurO1BVf0OzH-100" style="edgeStyle=orthogonalEdgeStyle;rounded=1;orthogonalLoop=1;jettySize=auto;html=1;entryX=0;entryY=0.5;entryDx=0;entryDy=0;entryPerimeter=0;curved=0;" edge="1" parent="hM7P6G1NgurO1BVf0OzH-65" source="hM7P6G1NgurO1BVf0OzH-93" target="hM7P6G1NgurO1BVf0OzH-94">
          <mxGeometry relative="1" as="geometry" />
        </mxCell>
        <mxCell id="hM7P6G1NgurO1BVf0OzH-105" value="Нет" style="edgeLabel;html=1;align=center;verticalAlign=middle;resizable=0;points=[];labelBackgroundColor=none;" vertex="1" connectable="0" parent="hM7P6G1NgurO1BVf0OzH-100">
          <mxGeometry x="-0.0793" y="-1" relative="1" as="geometry">
            <mxPoint y="-11" as="offset" />
          </mxGeometry>
        </mxCell>
        <mxCell id="hM7P6G1NgurO1BVf0OzH-101" style="edgeStyle=orthogonalEdgeStyle;rounded=1;orthogonalLoop=1;jettySize=auto;html=1;entryX=0;entryY=0.5;entryDx=0;entryDy=0;entryPerimeter=0;curved=0;" edge="1" parent="hM7P6G1NgurO1BVf0OzH-65" source="hM7P6G1NgurO1BVf0OzH-93" target="hM7P6G1NgurO1BVf0OzH-95">
          <mxGeometry relative="1" as="geometry">
            <Array as="points">
              <mxPoint x="855" y="420" />
            </Array>
          </mxGeometry>
        </mxCell>
        <mxCell id="hM7P6G1NgurO1BVf0OzH-104" value="Да" style="edgeLabel;html=1;align=center;verticalAlign=middle;resizable=0;points=[];labelBackgroundColor=none;" vertex="1" connectable="0" parent="hM7P6G1NgurO1BVf0OzH-101">
          <mxGeometry x="-0.6972" relative="1" as="geometry">
            <mxPoint x="15" y="-8" as="offset" />
          </mxGeometry>
        </mxCell>
        <mxCell id="hM7P6G1NgurO1BVf0OzH-102" style="edgeStyle=orthogonalEdgeStyle;rounded=1;orthogonalLoop=1;jettySize=auto;html=1;entryX=0;entryY=0.5;entryDx=0;entryDy=0;entryPerimeter=0;curved=0;" edge="1" parent="hM7P6G1NgurO1BVf0OzH-65" source="hM7P6G1NgurO1BVf0OzH-95" target="hM7P6G1NgurO1BVf0OzH-96">
          <mxGeometry relative="1" as="geometry" />
        </mxCell>
        <mxCell id="hM7P6G1NgurO1BVf0OzH-103" style="edgeStyle=orthogonalEdgeStyle;rounded=1;orthogonalLoop=1;jettySize=auto;html=1;entryX=0.5;entryY=0;entryDx=0;entryDy=0;entryPerimeter=0;curved=0;" edge="1" parent="hM7P6G1NgurO1BVf0OzH-65" source="hM7P6G1NgurO1BVf0OzH-94" target="hM7P6G1NgurO1BVf0OzH-82">
          <mxGeometry relative="1" as="geometry">
            <Array as="points">
              <mxPoint x="980" y="240" />
              <mxPoint x="550" y="240" />
            </Array>
          </mxGeometry>
        </mxCell>
        <mxCell id="hM7P6G1NgurO1BVf0OzH-107" value="Игрок" style="swimlane;startSize=20;horizontal=0;html=1;whiteSpace=wrap;" vertex="1" parent="1">
          <mxGeometry x="160" y="-340" width="1170" height="340" as="geometry" />
        </mxCell>
        <mxCell id="hM7P6G1NgurO1BVf0OzH-108" value="" style="points=[[0.145,0.145,0],[0.5,0,0],[0.855,0.145,0],[1,0.5,0],[0.855,0.855,0],[0.5,1,0],[0.145,0.855,0],[0,0.5,0]];shape=mxgraph.bpmn.event;html=1;verticalLabelPosition=bottom;labelBackgroundColor=#ffffff;verticalAlign=top;align=center;perimeter=ellipsePerimeter;outlineConnect=0;aspect=fixed;outline=standard;symbol=general;" vertex="1" parent="hM7P6G1NgurO1BVf0OzH-107">
          <mxGeometry x="60" y="160" width="50" height="50" as="geometry" />
        </mxCell>
        <mxCell id="hM7P6G1NgurO1BVf0OzH-109" value="Есть аккаунт?" style="points=[[0.25,0.25,0],[0.5,0,0],[0.75,0.25,0],[1,0.5,0],[0.75,0.75,0],[0.5,1,0],[0.25,0.75,0],[0,0.5,0]];shape=mxgraph.bpmn.gateway2;html=1;verticalLabelPosition=bottom;labelBackgroundColor=none;verticalAlign=top;align=center;perimeter=rhombusPerimeter;outlineConnect=0;outline=none;symbol=none;gwType=exclusive;" vertex="1" parent="hM7P6G1NgurO1BVf0OzH-107">
          <mxGeometry x="150" y="160" width="50" height="50" as="geometry" />
        </mxCell>
        <mxCell id="hM7P6G1NgurO1BVf0OzH-110" style="edgeStyle=orthogonalEdgeStyle;rounded=1;orthogonalLoop=1;jettySize=auto;html=1;entryX=0.5;entryY=0;entryDx=0;entryDy=0;dashPattern=1 2;endArrow=open;endFill=0;dashed=1;curved=0;" edge="1" parent="hM7P6G1NgurO1BVf0OzH-107" source="hM7P6G1NgurO1BVf0OzH-111" target="hM7P6G1NgurO1BVf0OzH-118">
          <mxGeometry relative="1" as="geometry" />
        </mxCell>
        <mxCell id="hM7P6G1NgurO1BVf0OzH-111" value="Регистрация и&lt;div&gt;ввод предпочтений&lt;/div&gt;" style="points=[[0.25,0,0],[0.5,0,0],[0.75,0,0],[1,0.25,0],[1,0.5,0],[1,0.75,0],[0.75,1,0],[0.5,1,0],[0.25,1,0],[0,0.75,0],[0,0.5,0],[0,0.25,0]];shape=mxgraph.bpmn.task2;whiteSpace=wrap;rectStyle=rounded;size=10;html=1;container=1;expand=0;collapsible=0;taskMarker=abstract;" vertex="1" parent="hM7P6G1NgurO1BVf0OzH-107">
          <mxGeometry x="240" y="145" width="120" height="80" as="geometry" />
        </mxCell>
        <mxCell id="hM7P6G1NgurO1BVf0OzH-112" value="Вход в&lt;div&gt;существующий&lt;/div&gt;&lt;div&gt;аккаунт&lt;/div&gt;" style="points=[[0.25,0,0],[0.5,0,0],[0.75,0,0],[1,0.25,0],[1,0.5,0],[1,0.75,0],[0.75,1,0],[0.5,1,0],[0.25,1,0],[0,0.75,0],[0,0.5,0],[0,0.25,0]];shape=mxgraph.bpmn.task2;whiteSpace=wrap;rectStyle=rounded;size=10;html=1;container=1;expand=0;collapsible=0;taskMarker=abstract;" vertex="1" parent="hM7P6G1NgurO1BVf0OzH-107">
          <mxGeometry x="240" y="40" width="120" height="80" as="geometry" />
        </mxCell>
        <mxCell id="hM7P6G1NgurO1BVf0OzH-113" style="edgeStyle=orthogonalEdgeStyle;rounded=1;orthogonalLoop=1;jettySize=auto;html=1;entryX=0;entryY=0.5;entryDx=0;entryDy=0;entryPerimeter=0;curved=0;" edge="1" parent="hM7P6G1NgurO1BVf0OzH-107" source="hM7P6G1NgurO1BVf0OzH-108" target="hM7P6G1NgurO1BVf0OzH-109">
          <mxGeometry relative="1" as="geometry" />
        </mxCell>
        <mxCell id="hM7P6G1NgurO1BVf0OzH-114" style="edgeStyle=orthogonalEdgeStyle;rounded=1;orthogonalLoop=1;jettySize=auto;html=1;exitX=1;exitY=0.5;exitDx=0;exitDy=0;exitPerimeter=0;entryX=0;entryY=0.5;entryDx=0;entryDy=0;entryPerimeter=0;curved=0;" edge="1" parent="hM7P6G1NgurO1BVf0OzH-107" source="hM7P6G1NgurO1BVf0OzH-109" target="hM7P6G1NgurO1BVf0OzH-111">
          <mxGeometry relative="1" as="geometry" />
        </mxCell>
        <mxCell id="hM7P6G1NgurO1BVf0OzH-115" value="Нет" style="edgeLabel;html=1;align=center;verticalAlign=middle;resizable=0;points=[];labelBackgroundColor=none;" vertex="1" connectable="0" parent="hM7P6G1NgurO1BVf0OzH-114">
          <mxGeometry x="-0.3214" y="1" relative="1" as="geometry">
            <mxPoint y="-14" as="offset" />
          </mxGeometry>
        </mxCell>
        <mxCell id="hM7P6G1NgurO1BVf0OzH-116" style="edgeStyle=orthogonalEdgeStyle;rounded=1;orthogonalLoop=1;jettySize=auto;html=1;entryX=0;entryY=0.5;entryDx=0;entryDy=0;entryPerimeter=0;curved=0;" edge="1" parent="hM7P6G1NgurO1BVf0OzH-107" source="hM7P6G1NgurO1BVf0OzH-109" target="hM7P6G1NgurO1BVf0OzH-112">
          <mxGeometry relative="1" as="geometry">
            <Array as="points">
              <mxPoint x="175" y="80" />
            </Array>
          </mxGeometry>
        </mxCell>
        <mxCell id="hM7P6G1NgurO1BVf0OzH-117" value="Да" style="edgeLabel;html=1;align=center;verticalAlign=middle;resizable=0;points=[];labelBackgroundColor=none;" vertex="1" connectable="0" parent="hM7P6G1NgurO1BVf0OzH-116">
          <mxGeometry x="-0.6078" relative="1" as="geometry">
            <mxPoint x="15" as="offset" />
          </mxGeometry>
        </mxCell>
        <mxCell id="hM7P6G1NgurO1BVf0OzH-118" value="БД" style="shape=datastore;html=1;labelPosition=center;verticalLabelPosition=bottom;align=center;verticalAlign=top;" vertex="1" parent="hM7P6G1NgurO1BVf0OzH-107">
          <mxGeometry x="280" y="260" width="40" height="40" as="geometry" />
        </mxCell>
        <mxCell id="hM7P6G1NgurO1BVf0OzH-119" value="" style="points=[[0.25,0.25,0],[0.5,0,0],[0.75,0.25,0],[1,0.5,0],[0.75,0.75,0],[0.5,1,0],[0.25,0.75,0],[0,0.5,0]];shape=mxgraph.bpmn.gateway2;html=1;verticalLabelPosition=bottom;labelBackgroundColor=#ffffff;verticalAlign=top;align=center;perimeter=rhombusPerimeter;outlineConnect=0;outline=none;symbol=none;gwType=exclusive;" vertex="1" parent="hM7P6G1NgurO1BVf0OzH-107">
          <mxGeometry x="400" y="160" width="50" height="50" as="geometry" />
        </mxCell>
        <mxCell id="hM7P6G1NgurO1BVf0OzH-120" style="edgeStyle=orthogonalEdgeStyle;rounded=1;orthogonalLoop=1;jettySize=auto;html=1;entryX=0;entryY=0.5;entryDx=0;entryDy=0;entryPerimeter=0;curved=0;" edge="1" parent="hM7P6G1NgurO1BVf0OzH-107" source="hM7P6G1NgurO1BVf0OzH-111" target="hM7P6G1NgurO1BVf0OzH-119">
          <mxGeometry relative="1" as="geometry" />
        </mxCell>
        <mxCell id="hM7P6G1NgurO1BVf0OzH-121" style="edgeStyle=orthogonalEdgeStyle;rounded=1;orthogonalLoop=1;jettySize=auto;html=1;entryX=0.5;entryY=0;entryDx=0;entryDy=0;entryPerimeter=0;curved=0;" edge="1" parent="hM7P6G1NgurO1BVf0OzH-107" source="hM7P6G1NgurO1BVf0OzH-112" target="hM7P6G1NgurO1BVf0OzH-119">
          <mxGeometry relative="1" as="geometry" />
        </mxCell>
        <mxCell id="hM7P6G1NgurO1BVf0OzH-122" value="Просмотреть&lt;div&gt;предложенную&lt;/div&gt;&lt;div&gt;игру&lt;/div&gt;" style="points=[[0.25,0,0],[0.5,0,0],[0.75,0,0],[1,0.25,0],[1,0.5,0],[1,0.75,0],[0.75,1,0],[0.5,1,0],[0.25,1,0],[0,0.75,0],[0,0.5,0],[0,0.25,0]];shape=mxgraph.bpmn.task2;whiteSpace=wrap;rectStyle=rounded;size=10;html=1;container=1;expand=0;collapsible=0;taskMarker=abstract;" vertex="1" parent="hM7P6G1NgurO1BVf0OzH-107">
          <mxGeometry x="490" y="145" width="120" height="80" as="geometry" />
        </mxCell>
        <mxCell id="hM7P6G1NgurO1BVf0OzH-123" value="Оценить игру" style="points=[[0.25,0,0],[0.5,0,0],[0.75,0,0],[1,0.25,0],[1,0.5,0],[1,0.75,0],[0.75,1,0],[0.5,1,0],[0.25,1,0],[0,0.75,0],[0,0.5,0],[0,0.25,0]];shape=mxgraph.bpmn.task2;whiteSpace=wrap;rectStyle=rounded;size=10;html=1;container=1;expand=0;collapsible=0;taskMarker=abstract;" vertex="1" parent="hM7P6G1NgurO1BVf0OzH-107">
          <mxGeometry x="650" y="145" width="120" height="80" as="geometry" />
        </mxCell>
        <mxCell id="hM7P6G1NgurO1BVf0OzH-142" style="edgeStyle=orthogonalEdgeStyle;rounded=1;orthogonalLoop=1;jettySize=auto;html=1;entryX=0.5;entryY=0;entryDx=0;entryDy=0;dashed=1;dashPattern=1 2;endArrow=open;endFill=0;curved=0;" edge="1" parent="hM7P6G1NgurO1BVf0OzH-107" source="hM7P6G1NgurO1BVf0OzH-124" target="hM7P6G1NgurO1BVf0OzH-141">
          <mxGeometry relative="1" as="geometry" />
        </mxCell>
        <mxCell id="hM7P6G1NgurO1BVf0OzH-124" value="Отправить результаты в систему" style="points=[[0.25,0,0],[0.5,0,0],[0.75,0,0],[1,0.25,0],[1,0.5,0],[1,0.75,0],[0.75,1,0],[0.5,1,0],[0.25,1,0],[0,0.75,0],[0,0.5,0],[0,0.25,0]];shape=mxgraph.bpmn.task2;whiteSpace=wrap;rectStyle=rounded;size=10;html=1;container=1;expand=0;collapsible=0;taskMarker=abstract;" vertex="1" parent="hM7P6G1NgurO1BVf0OzH-107">
          <mxGeometry x="810" y="145" width="120" height="80" as="geometry" />
        </mxCell>
        <mxCell id="hM7P6G1NgurO1BVf0OzH-125" value="Смотреть&lt;div&gt;дальше?&lt;/div&gt;" style="points=[[0.25,0.25,0],[0.5,0,0],[0.75,0.25,0],[1,0.5,0],[0.75,0.75,0],[0.5,1,0],[0.25,0.75,0],[0,0.5,0]];shape=mxgraph.bpmn.gateway2;html=1;verticalLabelPosition=bottom;labelBackgroundColor=none;verticalAlign=top;align=center;perimeter=rhombusPerimeter;outlineConnect=0;outline=none;symbol=none;gwType=exclusive;" vertex="1" parent="hM7P6G1NgurO1BVf0OzH-107">
          <mxGeometry x="970" y="160" width="50" height="50" as="geometry" />
        </mxCell>
        <mxCell id="hM7P6G1NgurO1BVf0OzH-126" value="" style="points=[[0.145,0.145,0],[0.5,0,0],[0.855,0.145,0],[1,0.5,0],[0.855,0.855,0],[0.5,1,0],[0.145,0.855,0],[0,0.5,0]];shape=mxgraph.bpmn.event;html=1;verticalLabelPosition=bottom;labelBackgroundColor=#ffffff;verticalAlign=top;align=center;perimeter=ellipsePerimeter;outlineConnect=0;aspect=fixed;outline=end;symbol=terminate2;" vertex="1" parent="hM7P6G1NgurO1BVf0OzH-107">
          <mxGeometry x="1060" y="160" width="50" height="50" as="geometry" />
        </mxCell>
        <mxCell id="hM7P6G1NgurO1BVf0OzH-127" style="edgeStyle=orthogonalEdgeStyle;rounded=1;orthogonalLoop=1;jettySize=auto;html=1;entryX=0;entryY=0.5;entryDx=0;entryDy=0;entryPerimeter=0;curved=0;" edge="1" parent="hM7P6G1NgurO1BVf0OzH-107" source="hM7P6G1NgurO1BVf0OzH-119" target="hM7P6G1NgurO1BVf0OzH-122">
          <mxGeometry relative="1" as="geometry" />
        </mxCell>
        <mxCell id="hM7P6G1NgurO1BVf0OzH-128" style="edgeStyle=orthogonalEdgeStyle;rounded=1;orthogonalLoop=1;jettySize=auto;html=1;entryX=0;entryY=0.5;entryDx=0;entryDy=0;entryPerimeter=0;curved=0;" edge="1" parent="hM7P6G1NgurO1BVf0OzH-107" source="hM7P6G1NgurO1BVf0OzH-122" target="hM7P6G1NgurO1BVf0OzH-123">
          <mxGeometry relative="1" as="geometry" />
        </mxCell>
        <mxCell id="hM7P6G1NgurO1BVf0OzH-129" style="edgeStyle=orthogonalEdgeStyle;rounded=1;orthogonalLoop=1;jettySize=auto;html=1;entryX=0;entryY=0.5;entryDx=0;entryDy=0;entryPerimeter=0;curved=0;" edge="1" parent="hM7P6G1NgurO1BVf0OzH-107" source="hM7P6G1NgurO1BVf0OzH-123" target="hM7P6G1NgurO1BVf0OzH-124">
          <mxGeometry relative="1" as="geometry" />
        </mxCell>
        <mxCell id="hM7P6G1NgurO1BVf0OzH-130" style="edgeStyle=orthogonalEdgeStyle;rounded=1;orthogonalLoop=1;jettySize=auto;html=1;exitX=1;exitY=0.5;exitDx=0;exitDy=0;exitPerimeter=0;entryX=0;entryY=0.5;entryDx=0;entryDy=0;entryPerimeter=0;curved=0;" edge="1" parent="hM7P6G1NgurO1BVf0OzH-107" source="hM7P6G1NgurO1BVf0OzH-124" target="hM7P6G1NgurO1BVf0OzH-125">
          <mxGeometry relative="1" as="geometry" />
        </mxCell>
        <mxCell id="hM7P6G1NgurO1BVf0OzH-131" style="edgeStyle=orthogonalEdgeStyle;rounded=1;orthogonalLoop=1;jettySize=auto;html=1;exitX=1;exitY=0.5;exitDx=0;exitDy=0;exitPerimeter=0;entryX=0;entryY=0.5;entryDx=0;entryDy=0;entryPerimeter=0;curved=0;" edge="1" parent="hM7P6G1NgurO1BVf0OzH-107" source="hM7P6G1NgurO1BVf0OzH-125" target="hM7P6G1NgurO1BVf0OzH-126">
          <mxGeometry relative="1" as="geometry" />
        </mxCell>
        <mxCell id="hM7P6G1NgurO1BVf0OzH-139" value="Нет" style="edgeLabel;html=1;align=center;verticalAlign=middle;resizable=0;points=[];labelBackgroundColor=none;" vertex="1" connectable="0" parent="hM7P6G1NgurO1BVf0OzH-131">
          <mxGeometry x="-0.3667" relative="1" as="geometry">
            <mxPoint y="-15" as="offset" />
          </mxGeometry>
        </mxCell>
        <mxCell id="hM7P6G1NgurO1BVf0OzH-132" style="edgeStyle=orthogonalEdgeStyle;rounded=1;orthogonalLoop=1;jettySize=auto;html=1;entryX=0.5;entryY=0;entryDx=0;entryDy=0;entryPerimeter=0;curved=0;" edge="1" parent="hM7P6G1NgurO1BVf0OzH-107" source="hM7P6G1NgurO1BVf0OzH-125" target="hM7P6G1NgurO1BVf0OzH-122">
          <mxGeometry relative="1" as="geometry">
            <Array as="points">
              <mxPoint x="995" y="60" />
              <mxPoint x="550" y="60" />
            </Array>
          </mxGeometry>
        </mxCell>
        <mxCell id="hM7P6G1NgurO1BVf0OzH-140" value="Да" style="edgeLabel;html=1;align=center;verticalAlign=middle;resizable=0;points=[];labelBackgroundColor=none;" vertex="1" connectable="0" parent="hM7P6G1NgurO1BVf0OzH-132">
          <mxGeometry x="-0.9173" relative="1" as="geometry">
            <mxPoint x="15" as="offset" />
          </mxGeometry>
        </mxCell>
        <mxCell id="hM7P6G1NgurO1BVf0OzH-133" value="Оценка" style="shape=mxgraph.bpmn.data2;labelPosition=center;verticalLabelPosition=bottom;align=center;verticalAlign=top;size=15;html=1;labelBackgroundColor=none;spacing=-2;" vertex="1" parent="hM7P6G1NgurO1BVf0OzH-107">
          <mxGeometry x="770" y="80" width="40" height="50" as="geometry" />
        </mxCell>
        <mxCell id="hM7P6G1NgurO1BVf0OzH-134" style="edgeStyle=orthogonalEdgeStyle;rounded=1;orthogonalLoop=1;jettySize=auto;html=1;entryX=0;entryY=0.5;entryDx=0;entryDy=0;entryPerimeter=0;labelBackgroundColor=default;dashed=1;dashPattern=1 2;endArrow=open;endFill=0;curved=0;" edge="1" parent="hM7P6G1NgurO1BVf0OzH-107" source="hM7P6G1NgurO1BVf0OzH-123" target="hM7P6G1NgurO1BVf0OzH-133">
          <mxGeometry relative="1" as="geometry" />
        </mxCell>
        <mxCell id="hM7P6G1NgurO1BVf0OzH-137" style="edgeStyle=orthogonalEdgeStyle;rounded=1;orthogonalLoop=1;jettySize=auto;html=1;entryX=0.5;entryY=0;entryDx=0;entryDy=0;entryPerimeter=0;dashed=1;dashPattern=1 2;endArrow=open;endFill=0;curved=0;" edge="1" parent="hM7P6G1NgurO1BVf0OzH-107" source="hM7P6G1NgurO1BVf0OzH-133" target="hM7P6G1NgurO1BVf0OzH-124">
          <mxGeometry relative="1" as="geometry">
            <Array as="points">
              <mxPoint x="870" y="105" />
            </Array>
          </mxGeometry>
        </mxCell>
        <mxCell id="hM7P6G1NgurO1BVf0OzH-141" value="БД" style="shape=datastore;html=1;labelPosition=center;verticalLabelPosition=bottom;align=center;verticalAlign=top;" vertex="1" parent="hM7P6G1NgurO1BVf0OzH-107">
          <mxGeometry x="850" y="260" width="40" height="40" as="geometry" />
        </mxCell>
        <mxCell id="hM7P6G1NgurO1BVf0OzH-145" style="edgeStyle=orthogonalEdgeStyle;rounded=1;orthogonalLoop=1;jettySize=auto;html=1;entryX=0.5;entryY=0;entryDx=0;entryDy=0;entryPerimeter=0;dashed=1;dashPattern=12 12;endArrow=blockThin;endFill=0;endSize=20;startArrow=oval;startFill=1;startSize=15;sourcePerimeterSpacing=0;strokeWidth=1;curved=0;shadow=0;flowAnimation=0;startFillColor=#FFFFFF;" edge="1" parent="1" target="hM7P6G1NgurO1BVf0OzH-53">
          <mxGeometry relative="1" as="geometry">
            <mxPoint x="835" y="375" as="sourcePoint" />
            <Array as="points">
              <mxPoint x="835" y="440" />
              <mxPoint x="285" y="440" />
            </Array>
          </mxGeometry>
        </mxCell>
        <mxCell id="hM7P6G1NgurO1BVf0OzH-146" style="edgeStyle=orthogonalEdgeStyle;rounded=1;orthogonalLoop=1;jettySize=auto;html=1;entryX=0.5;entryY=1;entryDx=0;entryDy=0;entryPerimeter=0;startArrow=oval;startFill=1;startSize=15;endSize=20;endArrow=blockThin;endFill=0;startFillColor=#FFFFFF;dashed=1;dashPattern=12 12;curved=0;" edge="1" parent="1" source="hM7P6G1NgurO1BVf0OzH-56" target="hM7P6G1NgurO1BVf0OzH-92">
          <mxGeometry relative="1" as="geometry">
            <Array as="points">
              <mxPoint x="695" y="480" />
              <mxPoint x="925" y="480" />
            </Array>
          </mxGeometry>
        </mxCell>
      </root>
    </mxGraphModel>
  </diagram>
</mxfile>
